Coordinates
version=1
nRows=14
nColumns=40
inDegrees=yes

Units are S.I. units (second, meters, Newtons, ...)
If the header above contains a line with 'inDegrees', this indicates whether rotational values are in degrees (yes) or radians (no).

endheader
time	pelvis_tilt	pelvis_list	pelvis_rotation	pelvis_tx	pelvis_ty	pelvis_tz	hip_flexion_r	hip_adduction_r	hip_rotation_r	knee_angle_r	knee_angle_r_beta	ankle_angle_r	subtalar_angle_r	mtp_angle_r	hip_flexion_l	hip_adduction_l	hip_rotation_l	knee_angle_l	knee_angle_l_beta	ankle_angle_l	subtalar_angle_l	mtp_angle_l	lumbar_extension	lumbar_bending	lumbar_rotation	arm_flex_r	arm_add_r	arm_rot_r	elbow_flex_r	pro_sup_r	wrist_flex_r	wrist_dev_r	arm_flex_l	arm_add_l	arm_rot_l	elbow_flex_l	pro_sup_l	wrist_flex_l	wrist_dev_l
      3.21000000	    -17.01600904	     -2.11643210	     -1.03145442	      0.21396196	      0.88803722	     -1.16751486	     25.32845408	    -22.02665240	    -37.49028778	     15.89801113	      0.27747264	     -3.55173814	     10.83294317	      0.00000000	     29.14298897	    -26.56222100	    -25.08208182	     16.38039749	      0.28589187	     -3.42935991	     13.62752555	      0.00000000	      0.00000000	      0.00000000	      0.00000000	     40.05797544	    -15.72711613	     40.05797544	     77.70323146	     44.26890327	      0.00000000	      0.00000000	     40.05797544	    -15.72711613	     40.05797544	     77.70323146	     44.26890327	      0.00000000	      0.00000000
      3.21500000	    -17.33527509	     -2.02330212	     -1.08535863	      0.21327093	      0.88708513	     -1.16746315	     26.03354028	    -22.27376961	    -37.25560610	     16.51057633	      0.28816392	     -3.35348088	     10.57145314	      0.00000000	     29.69975226	    -26.58701875	    -25.02305889	     16.78297546	      0.29291818	     -3.24974437	     13.54760980	      0.00000000	      0.00000000	      0.00000000	      0.00000000	     40.19034121	    -15.69855930	     40.19034121	     77.53256980	     44.35651880	      0.00000000	      0.00000000	     40.19034121	    -15.69855930	     40.19034121	     77.53256980	     44.35651880	      0.00000000	      0.00000000
      3.22000000	    -17.68545287	     -1.92238433	     -1.00962252	      0.21243883	      0.88608452	     -1.16768423	     26.71347512	    -22.57854514	    -37.10318253	     17.07331913	      0.29798563	     -3.23492489	     10.21864357	      0.00000000	     30.35762841	    -26.49039607	    -24.71077829	     17.13406192	      0.29904579	     -3.20813435	     13.24971248	      0.00000000	      0.00000000	      0.00000000	      0.00000000	     40.32627015	    -15.66946792	     40.32627015	     77.36186200	     44.43972221	      0.00000000	      0.00000000	     40.32627015	    -15.66946792	     40.32627015	     77.36186200	     44.43972221	      0.00000000	      0.00000000
      3.22500000	    -18.05109998	     -1.76183695	     -1.04000616	      0.21164075	      0.88495582	     -1.16765516	     27.51753430	    -22.93820393	    -36.88054418	     17.77339154	      0.31020420	     -3.00594217	     10.01524357	      0.00000000	     30.96589586	    -26.42682989	    -24.62626119	     17.52738813	      0.30591063	     -3.06174675	     13.07953887	      0.00000000	      0.00000000	      0.00000000	      0.00000000	     40.45335337	    -15.64262174	     40.45335337	     77.20873902	     44.50857616	      0.00000000	      0.00000000	     40.45335337	    -15.64262174	     40.45335337	     77.20873902	     44.50857616	      0.00000000	      0.00000000
      3.23000000	    -18.38025481	     -1.55356333	     -0.97752731	      0.21073802	      0.88394062	     -1.16777184	     28.24145545	    -23.36247054	    -36.67219847	     18.40351809	      0.32120198	     -2.83709845	      9.73666860	      0.00000000	     31.51939899	    -26.20671627	    -24.38178470	     17.76922444	      0.31013147	     -3.07681206	     12.72889234	      0.00000000	      0.00000000	      0.00000000	      0.00000000	     40.59070051	    -15.61358954	     40.59070051	     77.04372803	     44.58100045	      0.00000000	      0.00000000	     40.59070051	    -15.61358954	     40.59070051	     77.04372803	     44.58100045	      0.00000000	      0.00000000
      3.23500000	    -18.77066956	     -1.54429511	     -0.91872439	      0.20982277	      0.88271900	     -1.16794745	     28.96160264	    -23.57654060	    -36.55663850	     18.97933470	      0.33125188	     -2.69674153	      9.47502946	      0.00000000	     32.29917112	    -26.24849634	    -24.06609094	     18.25359039	      0.31858525	     -2.92251063	     12.48178672	      0.00000000	      0.00000000	      0.00000000	      0.00000000	     40.68698218	    -15.59358876	     40.68698218	     76.93440777	     44.62402924	      0.00000000	      0.00000000	     40.68698218	    -15.59358876	     40.68698218	     76.93440777	     44.62402924	      0.00000000	      0.00000000
      3.24000000	    -19.13048028	     -1.41983384	     -0.90625510	      0.20890702	      0.88151987	     -1.16796580	     29.72501645	    -23.89798551	    -36.34883877	     19.62533729	      0.34252675	     -2.49500880	      9.24438078	      0.00000000	     32.94963320	    -26.19655020	    -23.90321578	     18.65921933	      0.32566481	     -2.81018494	     12.26953679	      0.00000000	      0.00000000	      0.00000000	      0.00000000	     40.78072703	    -15.57411224	     40.78072703	     76.82848586	     44.66447277	      0.00000000	      0.00000000	     40.78072703	    -15.57411224	     40.78072703	     76.82848586	     44.66447277	      0.00000000	      0.00000000
      3.24500000	    -19.45191705	     -1.27597489	     -0.96314884	      0.20802228	      0.88033929	     -1.16779219	     30.48183768	    -24.18655180	    -36.05215522	     20.25399313	      0.35349887	     -2.29112106	      9.00995252	      0.00000000	     33.52912293	    -26.20198708	    -23.91440962	     19.10263248	      0.33340383	     -2.67831948	     12.17815847	      0.00000000	      0.00000000	      0.00000000	      0.00000000	     40.87382927	    -15.55481675	     40.87382927	     76.72468132	     44.70227864	      0.00000000	      0.00000000	     40.87382927	    -15.55481675	     40.87382927	     76.72468132	     44.70227864	      0.00000000	      0.00000000
      3.25000000	    -19.89233779	     -0.99301756	     -0.93168976	      0.20702160	      0.87880424	     -1.16774258	     31.45955743	    -24.75164304	    -35.83748464	     21.13514505	      0.36887787	     -1.93925532	      8.92538182	      0.00000000	     34.23743434	    -25.99302656	    -23.82967649	     19.50864675	      0.34049012	     -2.56813155	     11.93072262	      0.00000000	      0.00000000	      0.00000000	      0.00000000	     41.00305728	    -15.52821856	     41.00305728	     76.58405969	     44.75059893	      0.00000000	      0.00000000	     41.00305728	    -15.52821856	     41.00305728	     76.58405969	     44.75059893	      0.00000000	      0.00000000
      3.25500000	    -20.16801974	     -1.13339916	     -0.74118451	      0.20598126	      0.87775845	     -1.16814520	     31.88727319	    -24.84119985	    -35.93155786	     21.52227112	      0.37563449	     -1.88234315	      8.69106036	      0.00000000	     35.00152242	    -26.06528175	    -23.23839289	     19.94681216	      0.34813755	     -2.52167673	     11.56746539	      0.00000000	      0.00000000	      0.00000000	      0.00000000	     41.13653860	    -15.50067125	     41.13653860	     76.44031426	     44.79559189	      0.00000000	      0.00000000	     41.13653860	    -15.50067125	     41.13653860	     76.44031426	     44.79559189	      0.00000000	      0.00000000
      3.26000000	    -20.50276665	     -1.01925602	     -0.73210655	      0.20501106	      0.87646108	     -1.16806358	     32.62178191	    -25.14234082	    -35.71969387	     22.14947494	      0.38658127	     -1.66627342	      8.50739606	      0.00000000	     35.63832779	    -26.04374757	    -23.12379036	     20.37131379	      0.35554650	     -2.39652866	     11.40214703	      0.00000000	      0.00000000	      0.00000000	      0.00000000	     41.29748458	    -15.46663620	     41.29748458	     76.26110018	     44.84839386	      0.00000000	      0.00000000	     41.29748458	    -15.46663620	     41.29748458	     76.26110018	     44.84839386	      0.00000000	      0.00000000
      3.26500000	    -20.81937329	     -1.08069449	     -0.60540815	      0.20396495	      0.87517029	     -1.16826641	     33.18820571	    -25.31836350	    -35.74375984	     22.66332262	      0.39554960	     -1.51620517	      8.36044986	      0.00000000	     36.41310046	    -26.10530162	    -22.71514289	     20.85927931	      0.36406310	     -2.29494391	     11.11004915	      0.00000000	      0.00000000	      0.00000000	      0.00000000	     41.48854439	    -15.42626415	     41.48854439	     76.05495475	     44.90147479	      0.00000000	      0.00000000	     41.48854439	    -15.42626415	     41.48854439	     76.05495475	     44.90147479	      0.00000000	      0.00000000
      3.27000000	    -21.13342413	     -1.02079221	     -0.56570931	      0.20297864	      0.87380901	     -1.16822111	     33.86352523	    -25.58801001	    -35.61177768	     23.28291401	      0.40636351	     -1.26414361	      8.25324285	      0.00000000	     37.09083868	    -26.13237104	    -22.56211500	     21.34401310	      0.37252330	     -2.16594898	     10.94932674	      0.00000000	      0.00000000	      0.00000000	      0.00000000	     41.55410084	    -15.41438576	     41.55410084	     76.00641229	     44.91038466	      0.00000000	      0.00000000	     41.55410084	    -15.41438576	     41.55410084	     76.00641229	     44.91038466	      0.00000000	      0.00000000
      3.27500000	    -21.44250987	     -0.99760299	     -0.49243219	      0.20193670	      0.87242546	     -1.16823230	     34.50928168	    -25.84470364	    -35.53941649	     23.90162686	      0.41716209	     -1.02227668	      8.14706095	      0.00000000	     37.79307642	    -26.16219874	    -22.31437594	     21.82150885	      0.38085718	     -2.03375441	     10.77596805	      0.00000000	      0.00000000	      0.00000000	      0.00000000	     41.62170007	    -15.40221126	     41.62170007	     75.95724908	     44.91917120	      0.00000000	      0.00000000	     41.62170007	    -15.40221126	     41.62170007	     75.95724908	     44.91917120	      0.00000000	      0.00000000
